PathFileType	4	(X/Y/Z)	Kaydara	
DataRate	CameraRate	NumFrames	NumMarkers	Units	OrigDataRate	OrigDataStartFrame	OrigNumFrames	
60.00	60.00	4	74	mm	60.00	1976	201	
Frame#	Time	Z_lasi			Z_rasi			Z_rpsi			Z_lpsi			Z_fneck			Z_bneck			Z_fhead			Z_rhead			Z_lhead			Z_rshld			Z_relbtop			Z_relbext			Z_relblow			Z_rwrext			Z_rwrtop			Z_rwrlow			Z_lshld			Z_lelbext			Z_lelblow			Z_lelbtop			Z_lwrext			Z_lwrtop			Z_lwrlow			Z_rtopleg			Z_ltopleg			Z_rkneefr			Z_rkneebk			Z_rkneeis			Z_lkneefr			Z_lknssbk			Z_lkneeis			Z_rankfr			Z_rankis			Z_rankbk			Z_lankfr			Z_lankbk			Z_lankis			A_lasi			A_rasi			A_rpsi			A_lpsi			A_fneck			A_bneck			A_fhead			A_rhead			A_lhead			A_rshld			A_relbtop			A_relbext			A_relblow			A_rwrext			A_rwrtop			A_rwrlow			A_lshld			A_lelbext			A_lelblow			A_lelbtop			A_lwrext			A_lwrtop			A_lwrlow			A_rtopleg			A_ltopleg			A_rkneefr			A_rkneebk			A_rkneeis			A_lkneefr			A_lknssbk			A_lkneeis			A_rankfr			A_rankis			A_rankbk			A_lankfr			A_lankbk			A_lankis			
		X1	Y1	Z1	X2	Y2	Z2	X3	Y3	Z3	X4	Y4	Z4	X5	Y5	Z5	X6	Y6	Z6	X7	Y7	Z7	X8	Y8	Z8	X9	Y9	Z9	X10	Y10	Z10	X11	Y11	Z11	X12	Y12	Z12	X13	Y13	Z13	X14	Y14	Z14	X15	Y15	Z15	X16	Y16	Z16	X17	Y17	Z17	X18	Y18	Z18	X19	Y19	Z19	X20	Y20	Z20	X21	Y21	Z21	X22	Y22	Z22	X23	Y23	Z23	X24	Y24	Z24	X25	Y25	Z25	X26	Y26	Z26	X27	Y27	Z27	X28	Y28	Z28	X29	Y29	Z29	X30	Y30	Z30	X31	Y31	Z31	X32	Y32	Z32	X33	Y33	Z33	X34	Y34	Z34	X35	Y35	Z35	X36	Y36	Z36	X37	Y37	Z37	X38	Y38	Z38	X39	Y39	Z39	X40	Y40	Z40	X41	Y41	Z41	X42	Y42	Z42	X43	Y43	Z43	X44	Y44	Z44	X45	Y45	Z45	X46	Y46	Z46	X47	Y47	Z47	X48	Y48	Z48	X49	Y49	Z49	X50	Y50	Z50	X51	Y51	Z51	X52	Y52	Z52	X53	Y53	Z53	X54	Y54	Z54	X55	Y55	Z55	X56	Y56	Z56	X57	Y57	Z57	X58	Y58	Z58	X59	Y59	Z59	X60	Y60	Z60	X61	Y61	Z61	X62	Y62	Z62	X63	Y63	Z63	X64	Y64	Z64	X65	Y65	Z65	X66	Y66	Z66	X67	Y67	Z67	X68	Y68	Z68	X69	Y69	Z69	X70	Y70	Z70	X71	Y71	Z71	X72	Y72	Z72	X73	Y73	Z73	X74	Y74	Z74	

176	32.917	-271.35614	1071.62979	528.49068	-328.56133	1075.53787	327.31422	-158.16958	1108.27408	243.22002	-83.45655	1095.01297	478.14079	-279.19611	1437.74063	404.74457	-171.88965	1506.36627	405.31124	-372.31419	1640.79498	385.86044	-213.65433	1647.96722	329.99733	-228.14777	1638.51227	476.80393	-238.28119	1426.38229	193.18762	-200.38778	1106.69945	112.80390	-174.51702	1089.52621	166.24928	-266.77073	1116.50192	151.04611	-295.43142	878.22456	115.66271	-329.09668	891.36757	144.63841	-305.62729	886.35338	180.60364	-165.06424	1439.25095	582.74181	-124.36934	1120.46730	586.51947	-184.19380	1141.35033	649.30779	-115.10418	1138.40370	654.94125	-270.64148	895.49850	625.21137	-260.37357	885.51117	670.18356	-214.76704	877.08359	662.11075	-207.92068	916.93130	203.45531	-174.72490	892.84775	567.29607	-254.21864	415.23510	308.30362	-184.49329	441.41632	257.30236	-192.15427	436.32698	381.54007	-231.71644	453.86581	617.68139	-132.47116	478.41076	576.14815	-245.29177	447.56481	523.49030	-204.30523	173.34188	317.81519	-183.61469	177.15971	381.42025	-127.47031	167.65017	315.73257	-144.47743	177.35910	635.91072	-106.49614	173.90873	565.17590	-184.87797	175.54525	575.73853	-963.02757	1030.70862	482.63912	-952.53929	1037.92664	641.41975	-1114.66782	1038.06664	657.20497	-1087.21786	1042.17491	475.40531	-1032.00546	1378.60413	572.14886	-1165.44144	1422.52014	563.15826	-957.56363	1575.85007	581.94683	-1106.19675	1563.29620	667.29660	-1107.74879	1569.80270	504.24709	-1117.45644	1348.08121	747.62695	-1091.12595	1055.13466	778.21457	-1149.90089	1046.17882	751.16776	-1083.77380	1044.48265	720.50011	-1062.68494	809.05930	800.95131	-1019.00627	821.34079	795.54138	-1020.12413	820.35355	755.98083	-1060.98892	1353.98773	392.38609	-1089.03076	1043.17825	372.53967	-1021.34407	1051.02684	396.96682	-1045.79102	1049.75914	348.35793	-1002.02919	825.26360	381.22395	-1000.54878	828.03604	341.88156	-957.10648	834.35532	354.62669	-1064.75540	876.93909	738.50052	-1022.17636	889.98795	400.95890	-1025.82825	451.39534	654.18304	-1135.46471	488.72292	691.38741	-1108.14857	486.18851	574.28658	-1008.85727	463.56575	512.68261	-1092.30873	480.88337	417.27047	-1115.23422	479.58275	541.51703	-1102.85233	167.47089	676.39961	-1130.51147	163.48236	608.13026	-1183.95180	156.36892	673.78250	-1066.01578	166.21910	457.69745	-1127.29416	169.19508	422.78408	-1125.21118	173.40044	511.99730 
177	32.933	-271.72903	1072.63100	525.94994	-329.34917	1075.65689	324.83185	-159.07563	1107.98607	240.12592	-83.85140	1095.64674	475.01534	-279.22674	1438.22937	400.89237	-171.79382	1506.73630	400.54745	-371.87130	1641.67770	383.06171	-214.15171	1648.34778	325.08297	-226.60646	1638.99384	472.09702	-238.94459	1426.05759	188.87903	-201.67686	1106.32294	108.91245	-175.60163	1089.24797	162.40313	-268.07291	1116.12717	147.14839	-296.89968	877.90504	112.27040	-330.57590	891.22398	141.41507	-307.02349	886.17958	177.34661	-164.53825	1440.36331	578.28506	-124.11659	1121.59714	583.26843	-183.64134	1142.74902	646.32835	-114.61476	1139.87587	651.68770	-269.90927	896.54732	623.91529	-259.26685	886.75034	669.09401	-213.88092	878.30376	660.71640	-208.52907	916.60606	201.35941	-175.46396	893.70399	565.25822	-253.42760	415.28217	307.34776	-183.78918	441.38775	256.35372	-191.99896	436.58581	380.95200	-234.00982	453.50998	613.37250	-134.67127	478.61088	573.02559	-247.04254	447.63271	519.07143	-204.11825	173.36660	317.58432	-183.35281	177.37133	381.08028	-127.15021	167.55245	315.40192	-145.11740	176.99957	628.77850	-106.75962	174.72305	558.73703	-185.32372	175.76138	568.54015	-962.82616	1030.74150	482.66705	-952.39281	1037.97966	641.48537	-1114.52988	1038.04413	657.19650	-1087.02194	1042.14890	475.40287	-1032.01393	1378.59726	572.21085	-1165.37819	1422.59262	563.39222	-957.38144	1575.71182	581.53126	-1105.82977	1563.48541	667.40540	-1107.82669	1569.76990	504.30519	-1117.47902	1348.04932	747.69661	-1091.05354	1055.10910	778.30086	-1149.73419	1046.16631	751.28105	-1083.71780	1044.45427	720.52315	-1062.47818	809.03419	801.13350	-1018.89244	821.33835	795.60524	-1020.01144	820.35995	755.94734	-1060.96130	1354.03763	392.48932	-1088.89862	1043.18192	372.54215	-1021.22276	1051.07132	397.07077	-1045.66109	1049.80957	348.50723	-1001.82564	825.30296	381.31508	-1000.36743	828.07053	341.92780	-956.92719	834.40987	354.70959	-1064.08684	877.32552	738.66714	-1021.99829	889.94751	401.00376	-1025.73341	451.40568	654.19655	-1135.38246	488.71899	691.37947	-1108.03490	486.18484	574.28509	-1008.91106	463.49518	512.82120	-1092.14729	480.88711	417.28062	-1115.11559	479.59538	541.50345	-1102.82349	167.47238	676.41800	-1130.49858	163.48364	608.12672	-1183.92921	156.38647	673.77151	-1065.96260	166.21450	457.67662	-1127.23457	169.20780	422.79293	-1125.18257	173.41860	512.03999 
178	32.950	-271.99936	1073.53096	523.55186	-330.04395	1075.74738	322.57763	-160.03647	1107.68898	237.20940	-84.30752	1096.24603	472.08534	-279.20240	1438.78555	397.25857	-171.77258	1507.03964	395.98560	-371.67431	1642.54135	380.50907	-214.57724	1648.54172	320.15614	-225.02993	1639.51553	467.44026	-239.66896	1425.70221	184.88356	-202.93022	1105.85243	105.28449	-177.08717	1088.73009	158.87429	-269.10162	1115.76508	143.72931	-298.41715	877.56409	109.15092	-332.05933	890.97687	138.23338	-308.33698	886.06285	174.10280	-164.00906	1441.37939	574.01657	-123.95202	1122.69089	580.46860	-183.24799	1144.11545	643.64555	-114.26698	1141.29349	648.78075	-269.23338	897.48695	623.49083	-258.08224	888.01567	668.43689	-212.95809	879.63707	659.72694	-209.23885	916.22887	199.43520	-176.36822	894.37973	563.15216	-253.13173	415.32494	306.66121	-183.45215	441.19724	255.64970	-191.80996	436.84319	380.18314	-236.34726	452.98496	608.65124	-136.65386	478.82122	570.07515	-248.45524	447.27085	514.06254	-203.90480	173.35672	317.23835	-183.11832	177.45615	380.72563	-126.94270	167.41407	315.08907	-146.38597	176.74356	622.47833	-106.77912	175.35868	553.09242	-185.57035	176.03687	561.66553	-962.64717	1030.76736	482.69398	-952.25418	1037.97928	641.53000	-1114.37065	1038.00148	657.19376	-1086.84692	1042.14958	475.39536	-1032.00317	1378.57437	572.26044	-1165.31769	1422.64359	563.64365	-957.21497	1575.51544	581.02055	-1105.39665	1563.66364	667.52769	-1107.90993	1569.70734	504.35635	-1117.40189	1347.99057	747.78091	-1090.97046	1055.06729	778.39905	-1149.54086	1046.12320	751.40701	-1083.56079	1044.44084	720.54619	-1062.22023	808.97781	801.14052	-1018.74435	821.31706	795.65720	-1019.88579	820.33058	755.99045	-1061.00685	1354.06326	392.59018	-1088.84705	1043.13873	372.69203	-1021.14281	1051.11496	397.14672	-1045.56488	1049.82651	348.46786	-1001.68480	825.35561	381.37676	-1000.22896	828.11737	341.97742	-956.79543	834.47731	354.74884	-1064.40720	876.98997	738.51776	-1021.89713	889.96994	400.93693	-1025.61737	451.36322	654.20815	-1135.33188	488.72135	691.36047	-1107.93327	486.19572	574.28650	-1008.84903	463.46104	512.85637	-1092.00645	480.89966	417.27051	-1115.00038	479.60716	541.49372	-1102.80609	167.44173	676.40236	-1130.44731	163.48347	608.09643	-1183.89664	156.40420	673.73627	-1065.90996	166.21664	457.63203	-1127.18269	169.22684	422.77763	-1125.01213	173.52503	512.09473 
179	32.967	-271.98105	1074.32411	521.03363	-330.83385	1075.83313	320.45010	-161.06525	1107.36534	234.57684	-84.70125	1096.72440	469.26910	-279.16454	1439.22638	393.76015	-171.39759	1507.23099	391.40774	-371.16875	1643.34305	378.13854	-215.12728	1648.76022	315.44861	-223.47818	1639.96994	462.69455	-240.42034	1425.22095	181.02287	-204.24189	1105.34668	101.76438	-177.93413	1088.22525	155.01994	-270.38151	1115.41061	140.43590	-299.93082	876.97372	106.32454	-333.47252	890.57571	135.42035	-309.69721	885.78606	171.32145	-163.47990	1442.42584	569.88228	-123.88551	1123.77487	577.88044	-183.03904	1145.61501	641.25168	-113.87210	1142.75452	646.02280	-268.58646	898.50273	623.18451	-257.09454	889.24690	668.22449	-211.88793	880.98740	659.21555	-210.03960	915.89584	197.72263	-177.41959	894.82773	561.48327	-252.92072	415.25795	306.00582	-183.32645	441.08807	254.90036	-191.61289	436.98452	379.47601	-238.98905	452.57248	604.28516	-138.47017	478.99414	567.20184	-249.34532	446.87473	509.21925	-203.76774	173.34560	316.90353	-183.05414	177.54204	380.37060	-126.80388	167.35836	314.76980	-147.56205	176.56183	616.98620	-106.63459	175.91560	548.29140	-185.50039	176.20716	555.21431	-962.53166	1030.80055	482.74628	-952.09549	1037.93922	641.51680	-1114.20753	1037.97928	657.20154	-1086.66687	1042.13455	475.39879	-1032.02576	1378.52280	572.31861	-1165.27992	1422.69180	563.97320	-957.03690	1575.34912	580.56305	-1104.89441	1563.85178	667.58629	-1108.07251	1569.61212	504.45114	-1117.31407	1347.96463	747.91313	-1090.77759	1055.01549	778.45375	-1149.36485	1046.07193	751.52473	-1083.49564	1044.42307	720.56160	-1061.98593	808.91220	801.18614	-1018.58307	821.26968	795.71320	-1019.74205	820.25528	755.96741	-1061.09657	1354.12125	392.69051	-1088.78624	1043.22037	372.72366	-1021.09650	1051.15250	397.21912	-1045.51270	1049.86557	348.53565	-1001.66000	825.33043	381.43417	-1000.10529	828.18169	341.89613	-956.70586	834.54247	354.79427	-1064.25980	877.01050	738.57529	-1021.84570	889.96086	400.95573	-1025.46768	451.33186	654.22585	-1135.25558	488.71758	691.32576	-1107.83180	486.18317	574.24561	-1008.66226	463.49255	512.73865	-1091.90025	480.91782	417.25807	-1114.89662	479.62040	541.47228	-1102.77367	167.45090	676.42929	-1130.42870	163.47153	608.08144	-1183.88626	156.41762	673.72086	-1065.87730	166.20974	457.63287	-1127.24197	169.19628	422.67097	-1124.78088	173.39830	511.72535 
